<svg height="512pt" viewBox="0 0 512.00006 512" width="512pt" xmlns="http://www.w3.org/2000/svg"><path d="m512 256c0 136.523438-106.871094 248.085938-241.515625 255.589844-4.796875.269531-9.625.40625-14.484375.40625-138.289062 0-250.960938-109.648438-255.828125-246.75-.1171875-3.074219-.16796875-6.15625-.16796875-9.246094 0-4.859375.13671875-9.6875.40624975-14.484375 7.503906-134.644531 119.066406-241.515625 255.589844-241.515625 2.949219 0 5.894531.0507812 8.820312.15625h.019532c6.125.199219 12.183594.628906 18.183594 1.253906h.039062c119.765625 12.589844 214.9375 107.761719 227.527344 227.527344.625 6.015625 1.054687 12.085938 1.253906 18.222656.105469 2.933594.15625 5.882813.15625 8.839844zm0 0" fill="#3d3d3d"/><path d="m510.589844 228.9375c-2.550782-12.183594-8.558594-23.792969-18.023438-33.261719l-176.253906-176.25c-9.457031-9.457031-21.066406-15.464843-33.25-18.015625-5.996094-1.253906-12.128906-1.671875-18.222656-1.253906-15.421875 1.054688-30.5625 7.480469-42.359375 19.277344l-222.070313 222.082031c-.269531 4.796875-.40624975 9.625-.40624975 14.484375 0 141.382812 114.61328175 255.996094 255.99609375 255.996094 4.859375 0 9.6875-.136719 14.484375-.40625l222.082031-222.070313c11.796875-11.796875 18.222656-26.929687 19.277344-42.359375.417969-6.082031 0-12.226562-1.253906-18.222656zm-93.152344-8.726562c-4.578125 4.578124-10.59375 6.875-16.613281 6.875-6 0-12.015625-2.289063-16.605469-6.875l-92.441406-92.441407c-9.164063-9.164062-9.164063-24.042969.011718-33.207031 4.585938-4.585938 10.59375-6.886719 16.601563-6.886719 6.011719.011719 12.027344 2.300781 16.605469 6.875l92.441406 92.441407c9.164062 9.164062 9.175781 24.042968 0 33.21875zm0 0" fill="#fbcd58"/><path d="m407.90625 319.414062c0 37.695313-30.558594 68.253907-68.253906 68.253907-37.695313 0-68.253906-30.558594-68.253906-68.253907 0-37.695312 30.558593-68.253906 68.253906-68.253906 37.695312 0 68.253906 30.558594 68.253906 68.253906zm0 0" fill="#c12038"/><path d="m398.6875 319.414062c0 32.605469-26.429688 59.035157-59.035156 59.035157-32.601563 0-59.035156-26.429688-59.035156-59.035157 0-32.601562 26.433593-59.035156 59.035156-59.035156 32.605468 0 59.035156 26.433594 59.035156 59.035156zm0 0" fill="#dd3d88"/><path d="m315.070312 319.414062c0 9.917969 4.976563 18.671876 12.566407 23.914063 3.484375 2.402344 5.554687 6.367187 5.554687 10.601563 0 9.839843-10.597656 16.113281-19.179687 11.296874-16.023438-8.988281-26.847657-26.136718-26.847657-45.8125 0-19.675781 10.824219-36.820312 26.847657-45.804687 8.582031-4.8125 19.179687 1.457031 19.179687 11.300781v.003906c0 4.234376-2.074218 8.199219-5.558594 10.605469-7.589843 5.234375-12.5625 13.984375-12.5625 23.894531zm0 0" fill="#ef5f9e"/><path d="m364.234375 319.414062c0 9.917969-4.976563 18.671876-12.566406 23.914063-3.484375 2.402344-5.554688 6.367187-5.554688 10.601563 0 9.839843 10.597657 16.113281 19.183594 11.296874 16.019531-8.988281 26.847656-26.136718 26.847656-45.8125 0-19.675781-10.828125-36.820312-26.851562-45.804687-8.582031-4.8125-19.179688 1.457031-19.179688 11.300781v.003906c0 4.234376 2.074219 8.199219 5.558594 10.605469 7.589844 5.234375 12.5625 13.984375 12.5625 23.894531zm0 0" fill="#ef5f9e"/><g fill="#c12038"><path d="m327.820312 288.375c0 3.132812-2.539062 5.675781-5.671874 5.675781-3.132813 0-5.671876-2.542969-5.671876-5.675781s2.539063-5.671875 5.671876-5.671875c3.132812 0 5.671874 2.539063 5.671874 5.671875zm0 0"/><path d="m316.246094 301.652344c0 3.132812-2.539063 5.671875-5.671875 5.671875-3.132813 0-5.671875-2.539063-5.671875-5.671875 0-3.132813 2.539062-5.675782 5.671875-5.675782 3.132812 0 5.671875 2.542969 5.671875 5.675782zm0 0"/><path d="m311.800781 319.417969c0 3.132812-2.542969 5.671875-5.675781 5.671875s-5.671875-2.539063-5.671875-5.671875c0-3.132813 2.539063-5.675781 5.671875-5.675781s5.675781 2.542968 5.675781 5.675781zm0 0"/><path d="m327.820312 350.457031c0 3.136719-2.539062 5.675781-5.671874 5.675781-3.132813 0-5.671876-2.539062-5.671876-5.675781 0-3.132812 2.539063-5.671875 5.671876-5.671875 3.132812 0 5.671874 2.539063 5.671874 5.671875zm0 0"/><path d="m316.246094 337.183594c0 3.132812-2.539063 5.671875-5.671875 5.671875-3.132813 0-5.671875-2.539063-5.671875-5.671875 0-3.136719 2.539062-5.675782 5.671875-5.675782 3.132812 0 5.671875 2.539063 5.671875 5.675782zm0 0"/><path d="m362.789062 288.375c0 3.132812-2.539062 5.675781-5.671874 5.675781-3.136719 0-5.675782-2.542969-5.675782-5.675781s2.539063-5.671875 5.675782-5.671875c3.132812 0 5.671874 2.539063 5.671874 5.671875zm0 0"/><path d="m374.363281 301.652344c0 3.132812-2.539062 5.671875-5.671875 5.671875-3.136718 0-5.675781-2.539063-5.675781-5.671875 0-3.132813 2.539063-5.675782 5.675781-5.675782 3.132813 0 5.671875 2.542969 5.671875 5.675782zm0 0"/><path d="m378.8125 319.417969c0 3.132812-2.539062 5.671875-5.671875 5.671875-3.136719 0-5.675781-2.539063-5.675781-5.671875 0-3.132813 2.539062-5.675781 5.675781-5.675781 3.132813 0 5.671875 2.542968 5.671875 5.675781zm0 0"/><path d="m362.789062 350.457031c0 3.136719-2.539062 5.675781-5.671874 5.675781-3.136719 0-5.675782-2.539062-5.675782-5.675781 0-3.132812 2.539063-5.671875 5.675782-5.671875 3.132812 0 5.671874 2.539063 5.671874 5.671875zm0 0"/><path d="m374.363281 337.183594c0 3.132812-2.539062 5.671875-5.671875 5.671875-3.136718 0-5.675781-2.539063-5.675781-5.671875 0-3.136719 2.539063-5.675782 5.675781-5.675782 3.132813 0 5.671875 2.539063 5.671875 5.675782zm0 0"/></g><path d="m348.921875 319.414062c0-10.671874-4.148437-19.328124-9.269531-19.328124-5.117188 0-9.265625 8.65625-9.265625 19.328124 0 10.675782 4.148437 19.328126 9.265625 19.328126 5.121094 0 9.269531-8.652344 9.269531-19.328126zm0 0" fill="#ef5f9e"/><path d="m412.574219 238.824219c6.011719 0 12.027343-2.289063 16.609375-6.871094 9.175781-9.175781 9.167968-24.046875 0-33.21875l-11.746094-11.742187c9.167969 9.167968 9.175781 24.042968 0 33.21875-4.582031 4.578124-10.59375 6.871093-16.609375 6.871093-6.007813.007813-12.023437-2.285156-16.609375-6.871093l11.742188 11.742187c4.589843 4.589844 10.605468 6.878906 16.613281 6.871094zm0 0" fill="#f98c3c"/><path d="m328.058594 31.167969c-25.902344-25.902344-67.917969-25.902344-93.832032.011719l-234.054687 234.066406c-.1171875-3.074219-.16796875-6.15625-.16796875-9.246094 0-4.859375.13671875-9.6875.40624975-14.484375l222.070313-222.082031c11.789062-11.785156 26.917969-18.210938 42.339843-19.277344h.019532c6.074218-.417969 12.195312 0 18.183594 1.253906h.039062c12.183594 2.550782 23.792969 8.558594 33.25 18.015625zm0 0" fill="#f98c3c"/><path d="m183.859375 106.828125-52.230469 74-112.449218-79.367187c-20.441407-14.429688-25.3125-42.671876-10.882813-63.117188 2.953125-4.183594 6.5-7.722656 10.429687-10.570312 5.648438-4.101563 12.128907-6.785157 18.871094-7.949219 11.417969-1.96875 23.59375.421875 33.8125 7.636719zm0 0" fill="#5494a1"/><path d="m183.859375 106.828125-35.332031 50.0625-112.449219-79.367187c-16.257813-11.476563-22.65625-31.691407-17.351563-49.75 5.648438-4.101563 12.128907-6.785157 18.871094-7.949219 11.417969-1.96875 23.59375.421875 33.816406 7.636719zm0 0" fill="#7cbfbf"/><path d="m439.242188 287.082031c-42.265626 16.34375-87.195313 21.578125-130.839844 16.199219-43.632813-5.375-85.960938-21.390625-122.972656-47.511719l-71.214844-50.265625 69.644531-98.675781zm0 0" fill="#e6e6e6"/><path d="m416.703125 271.175781c-33.300781 8.65625-67.644531 10.804688-101.21875 6.660157-43.625-5.386719-85.960937-21.386719-122.972656-47.511719l-63.957031-45.140625 55.304687-78.355469zm0 0" fill="#ccc"/><path d="m252.910156 196.875-29.019531-20.480469c-8.011719-5.65625-9.921875-16.738281-4.265625-24.753906l58.039062 40.96875c-5.65625 8.011719-16.738281 9.921875-24.753906 4.265625zm0 0" fill="#e6e6e6"/><path d="m286.734375 411.78125c0-5.730469 7.246094-12.535156 5.570313-17.707031-1.742188-5.355469-11.664063-6.589844-14.910157-11.050781-3.277343-4.503907-1.40625-14.308594-5.910156-17.589844-4.460937-3.242188-13.195313 1.542968-18.550781-.195313-5.167969-1.679687-9.394532-10.742187-15.125-10.742187-5.730469 0-9.953125 9.0625-15.125 10.742187-5.355469 1.738281-14.089844-3.046875-18.550782.195313-4.503906 3.28125-2.632812 13.085937-5.910156 17.589844-3.246094 4.460937-13.167968 5.695312-14.910156 11.050781-1.675781 5.171875 5.570312 11.976562 5.570312 17.707031s-7.246093 12.535156-5.570312 17.707031c1.742188 5.355469 11.664062 6.589844 14.910156 11.050781 3.277344 4.503907 1.40625 14.3125 5.910156 17.589844 4.460938 3.242188 13.195313-1.542968 18.550782.195313 5.167968 1.679687 9.394531 10.742187 15.125 10.742187 5.730468 0 9.953125-9.0625 15.125-10.742187 5.355468-1.738281 14.089844 3.046875 18.550781-.195313 4.503906-3.277344 2.632813-13.085937 5.910156-17.589844 3.246094-4.460937 13.167969-5.695312 14.910157-11.050781 1.675781-5.171875-5.570313-11.976562-5.570313-17.707031zm0 0" fill="#6dbb59"/><path d="m281.835938 411.78125c0 24.316406-19.710938 44.027344-44.027344 44.027344s-44.027344-19.710938-44.027344-44.027344 19.710938-44.027344 44.027344-44.027344 44.027344 19.710938 44.027344 44.027344zm0 0" fill="#96d683"/><path d="m244.128906 409.167969h4.300782c2.832031 0 4.675781-3.074219 3.242187-5.519531-1.390625-2.363282-3.367187-4.339844-5.734375-5.730469-2.441406-1.433594-5.515625.410156-5.515625 3.242187v4.300782c0 2.046874 1.660156 3.707031 3.707031 3.707031zm0 0" fill="#6dbb59"/><path d="m235.195312 405.460938v-4.300782c0-2.832031-3.078124-4.675781-5.519531-3.242187-2.363281 1.390625-4.339843 3.367187-5.730469 5.734375-1.433593 2.441406.410157 5.519531 3.242188 5.519531h4.300781c2.046875-.003906 3.707031-1.664063 3.707031-3.710937zm0 0" fill="#6dbb59"/><path d="m240.421875 418.101562v4.300782c0 2.832031 3.074219 4.675781 5.515625 3.242187 2.367188-1.390625 4.34375-3.367187 5.734375-5.730469 1.433594-2.441406-.410156-5.519531-3.242187-5.519531h-4.300782c-2.046875 0-3.707031 1.660157-3.707031 3.707031zm0 0" fill="#6dbb59"/><path d="m231.488281 414.394531h-4.300781c-2.832031 0-4.675781 3.078125-3.242188 5.519531 1.390626 2.363282 3.367188 4.339844 5.730469 5.730469 2.445313 1.433594 5.519531-.410156 5.519531-3.242187v-4.300782c0-2.046874-1.660156-3.707031-3.707031-3.707031zm0 0" fill="#6dbb59"/><path d="m202.101562 401.894531c-1.480468-5.535156 3.761719-13.984375.804688-18.542969-3.066406-4.726562-12.972656-3.351562-17.257812-6.820312-4.332032-3.503906-5.0625-13.460938-10.257813-15.464844-5.148437-1.980468-12.347656 4.898438-17.972656 4.605469-5.425781-.285156-11.851563-7.945313-17.386719-6.464844s-7.273438 11.328125-11.832031 14.285157c-4.726563 3.066406-14.402344.699218-17.871094 4.988281-3.503906 4.332031.839844 13.320312-1.160156 18.519531-1.984375 5.148438-11.25 8.902344-11.546875 14.53125-.285156 5.425781 8.476562 10.128906 9.957031 15.664062 1.484375 5.53125-3.757813 13.980469-.800781 18.542969 3.066406 4.726563 12.96875 3.351563 17.257812 6.820313 4.332032 3.503906 5.058594 13.460937 10.257813 15.464844 5.148437 1.980468 12.347656-4.902344 17.972656-4.605469 5.425781.285156 11.851563 7.945312 17.386719 6.464843 5.53125-1.480468 7.273437-11.328124 11.832031-14.285156 4.726563-3.066406 14.402344-.703125 17.871094-4.988281 3.5-4.332031-.839844-13.324219 1.160156-18.523437 1.984375-5.144532 11.25-8.902344 11.546875-14.527344.285156-5.425782-8.476562-10.128906-9.960938-15.664063zm0 0" fill="#6dbb59"/><path d="m198.867188 414.542969c0 24.316406-19.710938 44.027343-44.027344 44.027343-24.3125 0-44.027344-19.710937-44.027344-44.027343 0-24.316407 19.714844-44.027344 44.027344-44.027344 24.316406 0 44.027344 19.710937 44.027344 44.027344zm0 0" fill="#96d683"/><path d="m160.273438 410.386719 4.152343-1.113281c2.734375-.730469 3.722657-4.179688 1.703125-6.167969-1.953125-1.925781-4.375-3.324219-7.015625-4.054688-2.730469-.753906-5.226562 1.824219-4.496093 4.558594l1.113281 4.152344c.53125 1.980469 2.5625 3.152343 4.542969 2.625zm0 0" fill="#6dbb59"/><path d="m150.683594 409.113281-1.113282-4.152343c-.730468-2.738282-4.179687-3.722657-6.167968-1.707032-1.925782 1.953125-3.324219 4.375-4.054688 7.019532-.753906 2.730468 1.824219 5.226562 4.558594 4.492187l4.152344-1.109375c1.980468-.53125 3.15625-2.566406 2.625-4.542969zm0 0" fill="#6dbb59"/><path d="m159 419.972656 1.109375 4.15625c.734375 2.734375 4.183594 3.71875 6.171875 1.703125 1.925781-1.953125 3.324219-4.375 4.054688-7.019531.753906-2.726562-1.824219-5.222656-4.558594-4.492188l-4.152344 1.113282c-1.980469.53125-3.15625 2.5625-2.625 4.539062zm0 0" fill="#6dbb59"/><path d="m149.410156 418.703125-4.152344 1.109375c-2.738281.734375-3.722656 4.183594-1.707031 6.171875 1.957031 1.921875 4.375 3.320313 7.019531 4.050781 2.730469.757813 5.226563-1.820312 4.492188-4.554687l-1.109375-4.15625c-.53125-1.976563-2.5625-3.152344-4.542969-2.621094zm0 0" fill="#6dbb59"/><path d="m170.515625 294.421875c0 37.695313-30.558594 68.253906-68.253906 68.253906-37.695313 0-68.253907-30.558593-68.253907-68.253906s30.558594-68.253906 68.253907-68.253906c37.695312 0 68.253906 30.558593 68.253906 68.253906zm0 0" fill="#c12038"/><path d="m161.296875 294.421875c0 32.605469-26.429687 59.035156-59.035156 59.035156-32.601563 0-59.035157-26.429687-59.035157-59.035156s26.433594-59.035156 59.035157-59.035156c32.605469 0 59.035156 26.429687 59.035156 59.035156zm0 0" fill="#dd3d88"/><path d="m83.523438 310.332031c6.421874 7.5625 15.878906 11.011719 25.0625 10.09375 4.207031-.421875 8.351562 1.261719 11.089843 4.484375 6.371094 7.5 2.355469 19.140625-7.304687 21.027344-18.03125 3.519531-37.382813-2.542969-50.121094-17.539062-12.738281-15-15.582031-35.074219-9.183594-52.292969 3.425782-9.226563 15.5625-11.304688 21.929688-3.804688l.007812.007813c2.738282 3.226562 3.726563 7.589844 2.625 11.679687-2.394531 8.902344-.519531 18.792969 5.894532 26.34375zm0 0" fill="#ef5f9e"/><path d="m120.996094 278.507812c6.421875 7.558594 8.296875 17.453126 5.902344 26.363282-1.097657 4.085937-.109376 8.445312 2.628906 11.671875 6.371094 7.5 18.507812 5.421875 21.933594-3.804688 6.394531-17.222656 3.546874-37.300781-9.191407-52.296875-12.738281-15-32.085937-21.058594-50.117187-17.535156-9.65625 1.890625-13.671875 13.527344-7.300782 21.027344l.003907.007812c2.738281 3.226563 6.886719 4.90625 11.101562 4.484375 9.171875-.921875 18.625 2.527344 25.039063 10.082031zm0 0" fill="#ef5f9e"/><path d="m74.5 282.09375c0 3.132812-2.539062 5.671875-5.671875 5.671875s-5.675781-2.539063-5.675781-5.671875 2.542968-5.675781 5.675781-5.675781 5.671875 2.542969 5.671875 5.675781zm0 0" fill="#c12038"/><path d="m74.273438 299.707031c0 3.132813-2.542969 5.671875-5.675782 5.671875-3.132812 0-5.671875-2.539062-5.671875-5.671875 0-3.136719 2.539063-5.675781 5.671875-5.675781 3.132813 0 5.675782 2.539062 5.675782 5.675781zm0 0" fill="#c12038"/><path d="m82.382812 316.125c0 3.136719-2.542968 5.675781-5.675781 5.675781-3.132812 0-5.671875-2.539062-5.671875-5.675781 0-3.132812 2.539063-5.671875 5.671875-5.671875 3.132813 0 5.675781 2.539063 5.675781 5.671875zm0 0" fill="#c12038"/><path d="m114.6875 329.414062c0 3.132813-2.539062 5.675782-5.671875 5.675782s-5.675781-2.542969-5.675781-5.675782c0-3.132812 2.542968-5.671874 5.675781-5.671874s5.671875 2.539062 5.671875 5.671874zm0 0" fill="#c12038"/><path d="m97.273438 326.789062c0 3.132813-2.539063 5.671876-5.675782 5.671876-3.132812 0-5.671875-2.539063-5.671875-5.671876 0-3.136718 2.539063-5.675781 5.671875-5.675781 3.136719 0 5.675782 2.539063 5.675782 5.675781zm0 0" fill="#c12038"/><path d="m101.152344 259.457031c0 3.132813-2.539063 5.675781-5.671875 5.675781-3.136719 0-5.675781-2.542968-5.675781-5.675781 0-3.132812 2.539062-5.671875 5.675781-5.671875 3.132812 0 5.671875 2.539063 5.671875 5.671875zm0 0" fill="#c12038"/><path d="m118.570312 262.085938c0 3.132812-2.542968 5.671874-5.675781 5.671874-3.132812 0-5.671875-2.539062-5.671875-5.671874 0-3.132813 2.539063-5.671876 5.671875-5.671876 3.132813 0 5.675781 2.539063 5.675781 5.671876zm0 0" fill="#c12038"/><path d="m133.460938 272.746094c0 3.132812-2.542969 5.675781-5.675782 5.675781-3.132812 0-5.671875-2.542969-5.671875-5.675781 0-3.132813 2.539063-5.671875 5.671875-5.671875 3.132813 0 5.675782 2.539062 5.675782 5.671875zm0 0" fill="#c12038"/><path d="m141.339844 306.777344c0 3.136718-2.539063 5.675781-5.671875 5.675781-3.132813 0-5.675781-2.539063-5.675781-5.675781 0-3.132813 2.542968-5.671875 5.675781-5.671875 3.132812 0 5.671875 2.539062 5.671875 5.671875zm0 0" fill="#c12038"/><path d="m141.570312 289.167969c0 3.132812-2.542968 5.671875-5.675781 5.671875-3.132812 0-5.671875-2.539063-5.671875-5.671875 0-3.132813 2.539063-5.675781 5.671875-5.675781 3.132813 0 5.675781 2.542968 5.675781 5.675781zm0 0" fill="#c12038"/><path d="m109.316406 288.421875c-6.910156-8.136719-15.671875-12.046875-19.574218-8.734375-3.902344 3.3125-1.460938 12.59375 5.449218 20.730469s15.671875 12.046875 19.574219 8.734375 1.460937-12.59375-5.449219-20.730469zm0 0" fill="#ef5f9e"/><path d="m246.601562 322.140625c0 14.160156-11.480468 25.644531-25.644531 25.644531-14.164062 0-25.644531-11.484375-25.644531-25.644531 0-14.164063 11.480469-25.644531 25.644531-25.644531 14.164063 0 25.644531 11.480468 25.644531 25.644531zm0 0" fill="#6dbb59"/><path d="m237.742188 322.140625c0 9.265625-7.515626 16.78125-16.785157 16.78125s-16.78125-7.515625-16.78125-16.78125c0-9.269531 7.511719-16.785156 16.78125-16.785156s16.785157 7.515625 16.785157 16.785156zm0 0" fill="#319962"/><path d="m227.734375 322.140625c0 3.742187-3.03125 6.777344-6.777344 6.777344-3.742187 0-6.777343-3.035157-6.777343-6.777344 0-3.746094 3.035156-6.78125 6.777343-6.78125 3.746094 0 6.777344 3.035156 6.777344 6.78125zm0 0" fill="#6dbb59"/><path d="m277.53125 81.152344c0 14.164062-11.480469 25.644531-25.644531 25.644531-14.164063 0-25.644531-11.480469-25.644531-25.644531 0-14.160156 11.480468-25.644532 25.644531-25.644532 14.164062 0 25.644531 11.484376 25.644531 25.644532zm0 0" fill="#6dbb59"/><path d="m268.667969 81.152344c0 9.269531-7.511719 16.785156-16.78125 16.785156s-16.785157-7.515625-16.785157-16.785156c0-9.269532 7.515626-16.78125 16.785157-16.78125s16.78125 7.511718 16.78125 16.78125zm0 0" fill="#319962"/><path d="m258.664062 81.152344c0 3.746094-3.035156 6.78125-6.777343 6.78125-3.746094 0-6.777344-3.035156-6.777344-6.78125 0-3.742188 3.03125-6.777344 6.777344-6.777344 3.742187 0 6.777343 3.035156 6.777343 6.777344zm0 0" fill="#6dbb59"/></svg>